PathFileType	4	(X/Y/Z)	14_coords_data.trc
DataRate	CameraRate	NumFrames	NumMarkers	Units	OrigDataRate	OrigDataStartFrame	OrigNumFrames
30.0	30.0	4	21	m	30.0	1	62
Frame#	Time	THUMB_TIP	THUMB_IP	THUMB_MCP	THUMB_CMC	INDEX_TIP	INDEX_DIP	INDEX_PIP	INDEX_MCP	MIDDLE_TIP	MIDDLE_DIP	MIDDLE_PIP	MIDDLE_MCP	RING_TIP	RING_DIP	RING_PIP	RING_MCP	PINKY_TIP	PINKY_DIP	PINKY_PIP	PINKY_MCP	WRIST
X1	Y1	Z1	X2	Y2	Z2	X3	Y3	Z3	X4	Y4	Z4	X5	Y5	Z5	X6	Y6	Z6	X7	Y7	Z7	X8	Y8	Z8	X9	Y9	Z9	X10	Y10	Z10	X11	Y11	Z11	X12	Y12	Z12	X13	Y13	Z13	X14	Y14	Z14	X15	Y15	Z15	X16	Y16	Z16	X17	Y17	Z17	X18	Y18	Z18	X19	Y19	Z19	X20	Y20	Z20	X21	Y21	Z21
0	0.0	-0.044232398986816406	-0.047763801574707034	0.9601179809570313	-0.03101539993286133	-0.02607909965515137	0.9702329711914063	-0.026746999740600585	-0.009212770462036134	0.9932269897460938	-0.02619659996032715	0.021897800445556642	1.0115999755859375	-0.01423490047454834	0.015804200172424315	0.9805469970703125	0.0014846500158309929	0.020535499572753906	0.970072021484375	0.002776309967041015	0.021934799194335938	0.9461229858398438	-0.03374729919433594	0.013928099632263184	0.9537169799804688	-0.012191399574279786	0.03163089942932129	0.9874310302734375	-0.000273537009954452	0.03849309921264649	0.9792260131835937	0.0041028099060058595	0.044587898254394534	0.9529580078125	-0.03596670150756836	0.03869290161132812	0.9497119750976563	-0.02035960006713867	0.045240100860595704	0.9950759887695313	-0.00625970983505249	0.05404499816894531	0.9868740234375	-0.00073216301202774	0.06386899948120117	0.96439599609375	-0.038431598663330076	0.05969490051269531	0.9579559936523437	-0.024423799514770507	0.058517101287841794	1.0010499877929688	-0.011432499885559081	0.0665979995727539	0.9952760009765625	-0.009191189765930176	0.07576930236816407	0.9797780151367188	-0.037964599609375	0.07562920379638671	0.9709169921875	-0.05024319839477539	0.044243698120117185	1.0263199462890624
1	0.03333333333333333	-0.04453620147705078	-0.046945899963378904	0.9585499877929687	-0.031148000717163084	-0.025367200851440428	0.96889697265625	-0.0265718994140625	-0.008696160316467284	0.9921229858398437	-0.0258341007232666	0.022208999633789063	1.0106199951171875	-0.013653900146484375	0.016485000610351564	0.9794730224609375	0.001583340048789978	0.02118029975891113	0.968677978515625	0.0023721001148223867	0.02265760040283203	0.9447570190429687	-0.03400469970703125	0.014587599754333496	0.9526849975585937	-0.011966699600219727	0.0321713981628418	0.9859199829101563	-0.00010349100083112701	0.039092201232910156	0.9778800048828125	0.0038799500465393063	0.04528450012207031	0.9516929931640625	-0.03636439895629883	0.03938309860229492	0.9490020141601563	-0.020085100173950196	0.04579140090942383	0.9939420166015625	-0.006188220024108887	0.05463140106201172	0.9855919799804688	-0.001070119976997375	0.06455709838867188	0.96327197265625	-0.038743301391601564	0.06030500030517578	0.9573839721679688	-0.024313800811767577	0.0592234992980957	1.00022998046875	-0.011365599632263183	0.06718689727783203	0.9941229858398437	-0.00948795986175537	0.07636229705810547	0.9785800170898438	-0.03841989898681641	0.07624790191650391	0.9704199829101563	-0.049701900482177735	0.044452701568603516	1.025719970703125
2	0.06666666666666667	-0.044445598602294925	-0.0463135986328125	0.9567990112304687	-0.031097999572753908	-0.02465519905090332	0.9674000244140625	-0.026303899765014647	-0.00821189022064209	0.990781982421875	-0.025550300598144532	0.022642499923706056	1.009469970703125	-0.013746899604797363	0.017295999526977537	0.9783389892578125	0.0015377000570297242	0.022047399520874023	0.9668309936523437	0.001794729948043823	0.02367449951171875	0.94310498046875	-0.03442129898071289	0.015415699958801269	0.9514390258789063	-0.012100199699401855	0.032847900390625	0.9846510009765626	-0.00016639399528503403	0.039948699951171875	0.9763709716796874	0.0032906899452209474	0.04623630142211914	0.95010498046875	-0.03698759841918945	0.04015810012817383	0.9480460205078125	-0.02020770072937012	0.04636050033569336	0.9927459716796875	-0.006410639762878418	0.05538759994506836	0.9844829711914063	-0.001474529981613159	0.06536720275878906	0.9619990234375	-0.03939860153198242	0.06110219955444336	0.956625	-0.024043399810791014	0.059479000091552735	0.9990269775390626	-0.011507399559020996	0.06791600036621094	0.9928289794921875	-0.009973340034484864	0.07722190093994141	0.97725	-0.03903829956054688	0.07687370300292969	0.9696530151367188	-0.04937020111083985	0.04464089965820312	1.0249200439453126
3	0.1	-0.04465909957885742	-0.04562480163574219	0.95527099609375	-0.03120170021057129	-0.024185800552368165	0.9659119873046875	-0.02625600051879883	-0.0077798299789428715	0.9894329833984375	-0.0253572998046875	0.023043500900268556	1.0084000244140625	-0.013757200241088867	0.01778879928588867	0.976906982421875	0.001684700012207031	0.02271190071105957	0.965656005859375	0.001935130000114441	0.024557699203491212	0.941989013671875	-0.03441339874267578	0.01626580047607422	0.9505670166015625	-0.011944299697875976	0.03330519866943359	0.9835260009765625	-0.00012865200638771	0.04046110153198242	0.9754550170898437	0.003446799993515014	0.04709320068359375	0.9492969970703125	-0.036770500183105466	0.04106380081176758	0.947156982421875	-0.02020590019226074	0.04685029983520508	0.9917440185546875	-0.006388450145721434	0.05597790145874024	0.9835269775390625	-0.0016584299802780151	0.06618959808349609	0.9611729736328125	-0.03944570159912109	0.061882400512695314	0.9559039916992188	-0.024197200775146484	0.05992240142822266	0.9978359985351563	-0.011585599899291992	0.0687967987060547	0.9917379760742188	-0.010278200149536133	0.07824620056152344	0.9759910278320313	-0.03949369812011719	0.07759999847412109	0.9686329956054688	-0.04916559982299805	0.04487490081787109	1.0240999755859375
